<svg width="223" height="92" viewBox="0 0 223 92" fill="none" xmlns="http://www.w3.org/2000/svg">
<g clip-path="url(#clip0_7171_287)">
<path d="M167.507 16.0679C173.054 11.9893 182.161 15.0026 182.161 24.8159C184.827 19.3092 196.481 20.6426 195.881 29.8692C199.494 27.4826 204.481 29.6426 204.321 34.7492C209.214 32.1226 218.201 37.5226 216.242 45.4946C213.587 44.6292 210.454 45.0826 207.881 47.2026C206.321 41.1359 199.921 39.2559 194.321 39.6425C189.962 39.9479 186.268 43.2426 184.868 46.6959C182.428 45.1613 179.214 44.8279 175.654 45.6425C169.547 47.0292 165.987 50.8159 165.214 56.0826C162.481 50.9759 154.987 53.1359 154.094 57.8692C152.161 50.9759 145.321 48.9759 140.654 49.4826C136.641 49.9092 131.494 52.1493 129.974 58.0293C126.654 54.8413 121.281 52.4945 115.427 52.9759C111.027 53.3359 106.948 55.6025 104.454 58.9479C103.788 53.0679 92.4008 50.8559 88.1355 56.3759C86.0808 53.9759 82.6141 52.1226 78.8275 51.8026C75.0408 51.4946 69.9742 52.4692 67.0542 55.9226C66.2275 50.4426 58.7075 47.0679 53.4808 49.0679C51.8408 42.8279 39.4408 38.3092 33.6542 48.5359C32.9875 42.3092 28.0942 39.8692 23.6542 39.8692C16.9742 39.8692 13.4275 44.9759 13.2141 48.0826C11.6141 47.1892 9.82751 46.9759 8.12084 47.3092C5.96217 39.4292 15.2541 33.3879 20.5475 36.9759C19.2141 28.9759 28.9875 25.6425 33.4941 30.9759C31.6675 23.8159 39.1355 18.7626 44.9342 20.8959C46.9622 13.4946 59.3608 9.16124 65.6542 17.4159C66.5475 12.0826 71.7475 8.58924 78.1608 9.48257C81.1475 9.89591 83.4942 11.3879 85.0008 13.2559C87.2142 7.22921 96.5755 5.96254 99.6542 11.3092C101.588 0.549202 119.948 -4.38544 127.321 7.00256C129.774 5.76256 132.841 5.4012 136.321 6.3092C141.881 7.76254 144.827 12.4692 145.214 16.0826C148.601 6.30924 164.454 8.08259 167.494 16.0679H167.507Z" fill="#D87639"/>
<path d="M33.6541 48.5359C39.4407 38.3092 51.8407 42.8279 53.4807 49.0679C58.7074 47.0679 66.2274 50.4426 67.0541 55.9226C69.9741 52.4692 75.0407 51.4946 78.8274 51.8026C82.614 52.1226 86.0807 53.9759 88.1354 56.3759C92.4007 50.8559 103.787 53.0679 104.454 58.9479C106.947 55.6025 111.027 53.3359 115.427 52.9759C121.281 52.4945 126.654 54.8413 129.974 58.0293C131.494 52.1493 136.641 49.9092 140.654 49.4826C145.321 48.9759 152.161 50.9759 154.094 57.8692C154.987 53.1359 162.481 50.9759 165.214 56.0826C165.987 50.8159 169.547 47.0292 175.654 45.6425C179.214 44.8279 182.427 45.1613 184.867 46.6959C186.202 43.4039 189.631 40.2866 193.725 39.7346C190.35 36.4693 184.037 36.9399 182.161 40.8159C182.161 31.0026 173.054 27.9893 167.507 32.0679H167.494C164.454 24.0826 148.601 22.3092 145.214 32.0826C144.827 28.4692 141.881 23.7625 136.321 22.3092C132.841 21.4012 129.774 21.7626 127.321 23.0026C119.947 11.6146 101.587 16.5492 99.6541 27.3092C96.5754 21.9625 87.2141 23.2292 85.0008 29.2559C83.4941 27.3879 81.1474 25.8959 78.1607 25.4826C71.7474 24.5892 66.5474 28.0826 65.6541 33.4159C59.3607 25.1612 46.9621 29.4946 44.9341 36.8959C39.1354 34.7626 31.6674 39.8159 33.4941 46.9759L33.3261 46.8079C33.4701 47.3519 33.5874 47.9199 33.6541 48.5359Z" fill="#B74F2F"/>
<path d="M192.541 50.0867C192.541 61.3147 158.962 70.42 117.541 70.42C76.1205 70.42 42.5405 61.3147 42.5405 50.0867C42.5405 38.8587 76.1205 29.7534 117.541 29.7534C158.962 29.7534 192.541 38.8587 192.541 50.0867Z" fill="#612D26"/>
<path d="M216.242 45.4946C219.721 46.6146 222.414 49.9759 222.094 54.7493C221.601 62.2959 216.641 64.5493 211.534 63.8159C211.534 65.1746 211.227 66.6293 210.547 68.0826C208.189 73.1893 199.881 75.2026 191.881 71.6426C189.909 82.2426 175.881 82.828 170.427 79.4013C167.681 85.6293 158.575 87.4159 153.707 83.4559C151.614 89.6559 140.414 90.8959 136.481 84.6426C132.827 89.9759 126.601 92.6426 116.481 91.6426C110.909 91.0826 107.481 89.2293 105.454 86.9359C96.7608 95.2159 82.1074 89.8026 79.8141 82.6426C77.4941 85.8026 72.1608 87.8026 65.6541 86.6426C62.0141 85.9892 58.3475 83.5226 56.6941 79.9359C51.3875 86.3093 38.4275 83.0679 37.4941 75.3092C31.2675 77.5892 19.8141 76.9759 16.1608 71.4826C14.8808 69.5626 14.1475 67.6959 13.8408 65.9359C5.78747 66.5493 0.614146 62.9626 0.320813 56.9759C0.0808129 52.1226 3.89415 48.0959 8.12081 47.3092C9.82748 46.9759 11.6141 47.1893 13.2141 48.0826C13.4274 44.9759 16.9741 39.8693 23.6541 39.8693C28.0941 39.8693 32.9875 42.3093 33.6541 48.5359C39.4408 38.3093 51.8408 42.828 53.4808 49.068C58.7074 47.068 66.2275 50.4426 67.0541 55.9226C69.9741 52.4693 75.0408 51.4946 78.8274 51.8026C82.6141 52.1226 86.0808 53.9759 88.1355 56.3759C92.4008 50.8559 103.787 53.0679 104.454 58.9479C106.947 55.6026 111.027 53.3359 115.427 52.9759C121.281 52.4946 126.654 54.8413 129.974 58.0293C131.494 52.1493 136.641 49.9093 140.654 49.4826C145.321 48.9759 152.161 50.9759 154.094 57.8693C154.987 53.1359 162.481 50.9759 165.214 56.0826C165.987 50.8159 169.547 47.0292 175.654 45.6426C179.214 44.8279 182.427 45.1613 184.867 46.696C186.267 43.2426 189.962 39.9479 194.321 39.6426C199.921 39.2559 206.321 41.1359 207.881 47.2026C210.454 45.0826 213.587 44.6293 216.242 45.4946Z" fill="#E88D3A"/>
<path d="M216.859 45.7533C216.289 52.7239 211.629 54.8173 206.823 54.1279C206.823 55.4239 206.531 56.8093 205.885 58.1933C203.635 63.06 195.718 64.9799 188.094 61.5866C186.213 71.6893 172.845 72.2479 167.647 68.9826C165.029 74.9173 156.353 76.6199 151.713 72.8439C149.717 78.7533 139.045 79.9359 135.295 73.9759C131.811 79.0586 125.878 81.6012 116.234 80.6479C110.922 80.1132 107.655 78.3466 105.725 76.1613C97.4393 84.0519 83.4727 78.8933 81.2887 72.0706C79.078 75.0813 73.994 76.9879 67.794 75.8813C64.3233 75.2599 60.8287 72.9093 59.254 69.4906C54.1954 75.564 41.846 72.4772 40.9553 65.0812C35.0207 67.2533 24.1047 66.6693 20.6234 61.4333C19.4034 59.6039 18.7033 57.8253 18.4127 56.1493C11.0073 56.712 6.17136 53.5453 5.58736 48.1973C2.49402 49.8026 0.131355 53.1252 0.320688 56.9759C0.614022 62.9626 5.78734 66.5493 13.8407 65.9359C14.1473 67.6959 14.8807 69.5626 16.1607 71.4826C19.814 76.9759 31.2673 77.5892 37.494 75.3092C38.4273 83.0679 51.3873 86.3093 56.694 79.9359C58.3473 83.5226 62.014 85.9892 65.654 86.6426C72.1607 87.8026 77.494 85.8026 79.814 82.6426C82.1073 89.8026 96.7607 95.2159 105.454 86.9359C107.481 89.2293 110.909 91.0826 116.481 91.6426C126.601 92.6426 132.827 89.9759 136.481 84.6426C140.414 90.8959 151.614 89.6559 153.707 83.4559C158.575 87.4159 167.681 85.6293 170.427 79.4013C175.881 82.828 189.909 82.2426 191.881 71.6426C199.881 75.2026 208.189 73.1893 210.547 68.0826C211.227 66.6293 211.534 65.1746 211.534 63.816C216.641 64.5493 221.601 62.296 222.094 54.7493C222.395 50.2693 220.029 47.0573 216.859 45.7533Z" fill="#D87639"/>
<path d="M30.1138 50.0453L30.1378 50.0627L30.1938 50.1027L30.1138 50.0453Z" fill="#F1AC56"/>
<path d="M30.6379 50.4495C30.4713 50.3215 30.3033 50.1921 30.1379 50.0628C29.5993 49.5815 28.9579 49.2628 28.2832 49.1321C28.5326 48.5001 28.6633 47.7588 28.5819 47.0868C28.3806 45.4014 27.7672 44.2948 26.3832 43.2841C25.3019 42.4948 23.8126 42.5814 22.5766 42.7761C21.4939 42.9481 20.4592 43.7374 19.6859 44.4588C17.8632 46.1574 16.7899 49.0628 18.1446 51.3575C19.2326 53.1961 21.6126 53.9068 23.6526 53.4708C23.5979 54.0615 23.6633 54.6588 23.9019 55.2348C24.2486 56.0708 24.3753 56.2935 24.9539 57.0108C25.4979 57.6855 26.5019 57.9561 27.3206 57.9908C27.5859 58.0015 28.242 58.1814 27.406 57.9614C28.93 58.3628 30.4712 57.7095 31.2939 56.3801C31.8553 55.4721 31.8379 54.4654 31.8739 53.4481C31.9006 52.7041 31.7046 51.8908 31.3019 51.2614C31.1353 50.9401 30.9126 50.6695 30.6379 50.4495Z" fill="#F1AC56"/>
<path d="M55.4915 58.2506L55.2301 58.0573C54.8781 57.6333 54.4475 57.2839 53.9501 57.0452C53.5248 55.7319 52.6529 54.5919 51.3702 53.7892C50.5542 53.2786 49.4408 53.0079 48.4248 53.1026C48.4488 52.8506 48.4688 52.5972 48.4515 52.3532C48.3502 50.9172 47.8448 49.7613 46.8915 48.6853C45.3181 46.9106 42.2555 47.0106 40.6648 48.6546C39.4942 49.8626 39.3581 51.4892 39.9581 52.8146C39.6821 53.9826 40.1075 55.2653 40.9102 56.1493C41.5995 56.9119 42.8448 57.2639 43.8581 57.1972C43.3408 58.4066 43.2368 59.8213 43.5861 61.0386C44.2781 63.4359 46.4662 64.4159 48.6795 64.2919C49.4875 64.4266 50.3235 64.4359 51.1982 64.4146L51.3262 64.4693H51.3342C52.7275 65.0426 54.2808 64.912 55.4915 63.7013C56.8568 62.336 57.1328 59.5679 55.4915 58.2506Z" fill="#F1AC56"/>
<path d="M75.0514 56.8759C73.7447 57.1759 72.4274 57.7959 71.362 58.6746C71.038 58.4666 70.686 58.2919 70.29 58.1306C71.866 58.7732 70.9153 58.3546 70.53 58.1612C69.5313 57.6612 68.8486 57.5132 67.7473 57.3972C66.902 57.3092 65.8447 57.6213 65.1314 58.0626C64.282 58.5893 63.3273 59.5559 63.178 60.5759C63.0153 61.6825 63.014 61.8559 63.1793 62.9599C63.3727 64.2639 64.722 65.3706 65.9167 65.6986C66.294 65.8026 66.6954 65.8386 67.098 65.8213L67.246 65.8759C68.1127 66.1025 68.9127 65.9985 69.7034 65.7479C69.974 66.2839 70.3073 66.7866 70.722 67.2239C71.2247 68.4133 72.2074 69.4252 73.6727 69.9106C76.298 70.7799 79.6353 70.3106 81.8327 68.6719C85.1473 66.2039 86.358 61.9132 83.4153 58.6145C81.458 56.4212 77.706 56.2665 75.0514 56.8759Z" fill="#F1AC56"/>
<path d="M58.9887 52.3855C57.4567 52.3855 56.1768 53.6642 56.1768 55.1989C56.1768 56.7322 57.4567 58.0109 58.9887 58.0109C60.5221 58.0109 61.8021 56.7322 61.8021 55.1989C61.8021 53.6642 60.5221 52.3855 58.9887 52.3855Z" fill="#F1AC56"/>
<path d="M131.877 66.424C130.486 66.424 129.325 67.5839 129.325 68.9759C129.325 70.3679 130.486 71.528 131.877 71.528C133.267 71.528 134.429 70.3679 134.429 68.9759C134.429 67.5839 133.267 66.424 131.877 66.424Z" fill="#F1AC56"/>
<path d="M33.8471 58.4506L33.7484 58.524C32.6898 58.82 32.0071 60.2333 32.9791 61.2066C33.9551 62.1826 35.3765 61.4933 35.6671 60.4306L35.7351 60.3386C36.5431 59.2453 34.9391 57.6399 33.8471 58.4506Z" fill="#F1AC56"/>
<path d="M99.7738 62.3493C98.7458 61.8933 97.9644 61.6386 96.8084 61.6119C95.7658 61.5893 94.6991 62.016 93.7991 62.4826C91.3444 63.7533 90.1031 67.1386 91.6391 69.5466C92.1085 70.2813 92.7431 70.86 93.4858 71.232C94.0764 71.8653 94.8378 72.336 95.6791 72.516C96.9045 72.776 97.9698 72.5653 99.0871 72.0133L99.2751 71.892C100.134 71.2213 100.238 71.1466 99.5871 71.664C99.9725 71.4253 100.328 71.1253 100.664 70.8199C101.86 69.7266 102.471 68.4906 102.626 66.8666C102.799 65.0493 101.378 63.06 99.7738 62.3493Z" fill="#F1AC56"/>
<path d="M126.282 61.9011C124.582 60.1438 122.198 59.3237 119.821 59.0744C116.821 58.7637 114.359 59.6171 112.579 62.1411C112.366 62.4424 112.189 62.7518 112.029 63.0651C110.713 62.4678 109.142 62.3797 107.713 62.6277C107.399 62.6824 107.103 62.7824 106.822 62.9117C104.866 63.5997 103.541 65.7571 103.778 67.8131C104.038 70.0691 105.411 71.9664 107.723 72.4797C109.709 72.9197 111.613 72.4117 113.165 71.1277L113.197 71.0944C114.201 72.2011 115.555 73.0344 117.162 73.3904C117.57 73.4824 117.974 73.5278 118.379 73.5518C119.265 73.7158 120.171 73.6717 121.011 73.4171C121.145 73.4277 121.274 73.4411 121.41 73.4477C127.085 73.6877 130.079 65.8264 126.282 61.9011Z" fill="#F1AC56"/>
<path d="M147.843 58.0735C147.815 57.8641 147.777 57.6561 147.71 57.4507C147.353 56.3681 146.287 55.2801 145.034 55.4147C143.671 55.5601 142.489 56.0588 141.754 57.3028C141.355 57.9801 141.263 58.7095 141.362 59.4015C139.135 59.5335 137.291 61.2308 137.221 63.5134C137.162 63.7041 137.111 63.8934 137.075 64.0814C136.742 65.7694 137.53 67.8521 139.426 68.2214C140.649 68.4614 141.731 68.5627 142.958 68.3281C145.217 67.8987 146.579 65.8321 146.666 63.6427C146.69 63.0574 146.547 62.4974 146.305 61.9828C147.325 61.3761 148.001 60.2268 147.935 59.0601L147.946 58.9801C147.935 58.6001 147.814 57.7588 147.843 58.0735Z" fill="#F1AC56"/>
<path d="M189.321 51.992C188.45 51.992 187.645 52.292 186.983 52.78L186.883 52.5253C186.754 52.2506 186.447 51.3933 186.837 52.568C186.647 51.9973 186.367 51.352 186.023 50.8373C184.415 48.4333 181.91 47.4373 179.079 47.8653C180.726 47.6173 178.843 47.828 178.293 48.0133C177.455 48.292 176.699 48.6853 176.069 49.316C174.862 50.5213 174.322 52.4 174.77 54.0546L174.711 54.4026C174.069 54.368 173.377 54.4373 172.897 54.6119C171.741 55.0333 171.013 55.6466 170.285 56.5186C169.87 56.3853 169.441 56.2933 168.987 56.2933C166.881 56.2933 165.093 57.8573 164.719 59.868C164.302 59.4853 163.834 59.1559 163.391 58.9173C161.989 58.1626 160.438 57.9279 158.889 58.3226C157.199 58.7519 155.789 60.48 155.857 62.2573L155.802 62.324C155.215 63.152 155.254 64.3133 155.459 65.2453C155.686 66.2839 156.573 67.1986 157.449 67.7506C158.465 68.3919 159.802 68.6386 160.986 68.5186C162.354 68.3826 163.997 68.0359 164.957 66.9426C165.547 66.2693 166.026 65.5973 166.239 64.708C166.294 64.4773 166.311 64.2613 166.331 64.044C167.073 64.6266 167.989 64.992 168.987 64.992C169.667 64.992 170.305 64.8147 170.883 64.5267C171.114 64.6933 171.358 64.8359 171.617 64.9559C172.03 65.6426 172.818 66.36 173.635 66.492C174.809 66.6853 175.771 66.8959 176.973 66.6559C178.742 66.3026 179.858 64.5893 180.438 63.0213C180.659 62.424 180.731 61.8279 180.695 61.2533C181.53 61.2506 182.355 61.1466 183.051 60.9906C184.337 60.7026 185.583 59.8106 186.43 58.6813C187.162 59.4613 188.189 59.96 189.321 59.96C191.493 59.96 193.305 58.1479 193.305 55.9759C193.305 53.8039 191.493 51.992 189.321 51.992Z" fill="#F1AC56"/>
<path d="M216.242 45.4946C219.721 46.6146 222.414 49.9759 222.094 54.7493C221.601 62.2959 216.641 64.5493 211.534 63.8159C211.534 65.1746 211.227 66.6293 210.547 68.0826C208.189 73.1893 199.881 75.2026 191.881 71.6426C189.909 82.2426 175.881 82.828 170.427 79.4013C167.681 85.6293 158.575 87.4159 153.707 83.4559C151.614 89.6559 140.414 90.8959 136.481 84.6426C132.827 89.9759 126.601 92.6426 116.481 91.6426C110.909 91.0826 107.481 89.2293 105.454 86.9359C96.7608 95.2159 82.1074 89.8026 79.8141 82.6426C77.4941 85.8026 72.1608 87.8026 65.6541 86.6426C62.0141 85.9892 58.3475 83.5226 56.6941 79.9359C51.3875 86.3093 38.4275 83.0679 37.4941 75.3092C31.2675 77.5892 19.8141 76.9759 16.1608 71.4826C14.8808 69.5626 14.1475 67.6959 13.8408 65.9359C5.78747 66.5493 0.614146 62.9626 0.320813 56.9759C0.0808129 52.1226 3.89415 48.0959 8.12081 47.3092C9.82748 46.9759 11.6141 47.1893 13.2141 48.0826C13.4274 44.9759 16.9741 39.8693 23.6541 39.8693C28.0941 39.8693 32.9875 42.3093 33.6541 48.5359C39.4408 38.3093 51.8408 42.828 53.4808 49.068C58.7074 47.068 66.2275 50.4426 67.0541 55.9226C69.9741 52.4693 75.0408 51.4946 78.8274 51.8026C82.6141 52.1226 86.0808 53.9759 88.1355 56.3759C92.4008 50.8559 103.787 53.0679 104.454 58.9479C106.947 55.6026 111.027 53.3359 115.427 52.9759C121.281 52.4946 126.654 54.8413 129.974 58.0293C131.494 52.1493 136.641 49.9093 140.654 49.4826C145.321 48.9759 152.161 50.9759 154.094 57.8693C154.987 53.1359 162.481 50.9759 165.214 56.0826C165.987 50.8159 169.547 47.0292 175.654 45.6426C179.214 44.8279 182.427 45.1613 184.867 46.696C186.267 43.2426 189.962 39.9479 194.321 39.6426C199.921 39.2559 206.321 41.1359 207.881 47.2026C210.454 45.0826 213.587 44.6293 216.242 45.4946Z" fill="#E88D3A"/>
<path d="M216.859 45.7533C216.289 52.7239 211.629 54.8173 206.823 54.1279C206.823 55.4239 206.531 56.8093 205.885 58.1933C203.635 63.06 195.718 64.9799 188.094 61.5866C186.213 71.6893 172.845 72.2479 167.647 68.9826C165.029 74.9173 156.353 76.6199 151.713 72.8439C149.717 78.7533 139.045 79.9359 135.295 73.9759C131.811 79.0586 125.878 81.6012 116.234 80.6479C110.922 80.1132 107.655 78.3466 105.725 76.1613C97.4393 84.0519 83.4727 78.8933 81.2887 72.0706C79.078 75.0813 73.994 76.9879 67.794 75.8813C64.3233 75.2599 60.8287 72.9093 59.254 69.4906C54.1954 75.564 41.846 72.4772 40.9553 65.0812C35.0207 67.2533 24.1047 66.6693 20.6234 61.4333C19.4034 59.6039 18.7033 57.8253 18.4127 56.1493C11.0073 56.712 6.17136 53.5453 5.58736 48.1973C2.49402 49.8026 0.131355 53.1252 0.320688 56.9759C0.614022 62.9626 5.78734 66.5493 13.8407 65.9359C14.1473 67.6959 14.8807 69.5626 16.1607 71.4826C19.814 76.9759 31.2673 77.5892 37.494 75.3092C38.4273 83.0679 51.3873 86.3093 56.694 79.9359C58.3473 83.5226 62.014 85.9892 65.654 86.6426C72.1607 87.8026 77.494 85.8026 79.814 82.6426C82.1073 89.8026 96.7607 95.2159 105.454 86.9359C107.481 89.2293 110.909 91.0826 116.481 91.6426C126.601 92.6426 132.827 89.9759 136.481 84.6426C140.414 90.8959 151.614 89.6559 153.707 83.4559C158.575 87.4159 167.681 85.6293 170.427 79.4013C175.881 82.828 189.909 82.2426 191.881 71.6426C199.881 75.2026 208.189 73.1893 210.547 68.0826C211.227 66.6293 211.534 65.1746 211.534 63.816C216.641 64.5493 221.601 62.296 222.094 54.7493C222.395 50.2693 220.029 47.0573 216.859 45.7533Z" fill="#D87639"/>
<path d="M30.1138 50.0453L30.1378 50.0627L30.1938 50.1027L30.1138 50.0453Z" fill="#F1AC56"/>
<path d="M30.6379 50.4495C30.4713 50.3215 30.3033 50.1921 30.1379 50.0628C29.5993 49.5815 28.9579 49.2628 28.2832 49.1321C28.5326 48.5001 28.6633 47.7588 28.5819 47.0868C28.3806 45.4014 27.7672 44.2948 26.3832 43.2841C25.3019 42.4948 23.8126 42.5814 22.5766 42.7761C21.4939 42.9481 20.4592 43.7374 19.6859 44.4588C17.8632 46.1574 16.7899 49.0628 18.1446 51.3575C19.2326 53.1961 21.6126 53.9068 23.6526 53.4708C23.5979 54.0615 23.6633 54.6588 23.9019 55.2348C24.2486 56.0708 24.3753 56.2935 24.9539 57.0108C25.4979 57.6855 26.5019 57.9561 27.3206 57.9908C27.5859 58.0015 28.242 58.1814 27.406 57.9614C28.93 58.3628 30.4712 57.7095 31.2939 56.3801C31.8553 55.4721 31.8379 54.4654 31.8739 53.4481C31.9006 52.7041 31.7046 51.8908 31.3019 51.2614C31.1353 50.9401 30.9126 50.6695 30.6379 50.4495Z" fill="#F1AC56"/>
<path d="M55.4915 58.2506L55.2301 58.0573C54.8781 57.6333 54.4475 57.2839 53.9501 57.0452C53.5248 55.7319 52.6529 54.5919 51.3702 53.7892C50.5542 53.2786 49.4408 53.0079 48.4248 53.1026C48.4488 52.8506 48.4688 52.5972 48.4515 52.3532C48.3502 50.9172 47.8448 49.7613 46.8915 48.6853C45.3181 46.9106 42.2555 47.0106 40.6648 48.6546C39.4942 49.8626 39.3581 51.4892 39.9581 52.8146C39.6821 53.9826 40.1075 55.2653 40.9102 56.1493C41.5995 56.9119 42.8448 57.2639 43.8581 57.1972C43.3408 58.4066 43.2368 59.8213 43.5861 61.0386C44.2781 63.4359 46.4662 64.4159 48.6795 64.2919C49.4875 64.4266 50.3235 64.4359 51.1982 64.4146L51.3262 64.4693H51.3342C52.7275 65.0426 54.2808 64.912 55.4915 63.7013C56.8568 62.336 57.1328 59.5679 55.4915 58.2506Z" fill="#F1AC56"/>
<path d="M75.0514 56.8759C73.7447 57.1759 72.4274 57.7959 71.362 58.6746C71.038 58.4666 70.686 58.2919 70.29 58.1306C71.866 58.7732 70.9153 58.3546 70.53 58.1612C69.5313 57.6612 68.8486 57.5132 67.7473 57.3972C66.902 57.3092 65.8447 57.6213 65.1314 58.0626C64.282 58.5893 63.3273 59.5559 63.178 60.5759C63.0153 61.6825 63.014 61.8559 63.1793 62.9599C63.3727 64.2639 64.722 65.3706 65.9167 65.6986C66.294 65.8026 66.6954 65.8386 67.098 65.8213L67.246 65.8759C68.1127 66.1025 68.9127 65.9985 69.7034 65.7479C69.974 66.2839 70.3073 66.7866 70.722 67.2239C71.2247 68.4133 72.2074 69.4252 73.6727 69.9106C76.298 70.7799 79.6353 70.3106 81.8327 68.6719C85.1473 66.2039 86.358 61.9132 83.4153 58.6145C81.458 56.4212 77.706 56.2665 75.0514 56.8759Z" fill="#F1AC56"/>
<path d="M58.9887 52.3855C57.4567 52.3855 56.1768 53.6642 56.1768 55.1989C56.1768 56.7322 57.4567 58.0109 58.9887 58.0109C60.5221 58.0109 61.8021 56.7322 61.8021 55.1989C61.8021 53.6642 60.5221 52.3855 58.9887 52.3855Z" fill="#F1AC56"/>
<path d="M131.877 66.424C130.486 66.424 129.325 67.5839 129.325 68.9759C129.325 70.3679 130.486 71.528 131.877 71.528C133.267 71.528 134.429 70.3679 134.429 68.9759C134.429 67.5839 133.267 66.424 131.877 66.424Z" fill="#F1AC56"/>
<path d="M33.8471 58.4506L33.7484 58.524C32.6898 58.82 32.0071 60.2333 32.9791 61.2066C33.9551 62.1826 35.3765 61.4933 35.6671 60.4306L35.7351 60.3386C36.5431 59.2453 34.9391 57.6399 33.8471 58.4506Z" fill="#F1AC56"/>
<path d="M99.7738 62.3493C98.7458 61.8933 97.9644 61.6386 96.8084 61.6119C95.7658 61.5893 94.6991 62.016 93.7991 62.4826C91.3444 63.7533 90.1031 67.1386 91.6391 69.5466C92.1085 70.2813 92.7431 70.86 93.4858 71.232C94.0764 71.8653 94.8378 72.336 95.6791 72.516C96.9045 72.776 97.9698 72.5653 99.0871 72.0133L99.2751 71.892C100.134 71.2213 100.238 71.1466 99.5871 71.664C99.9725 71.4253 100.328 71.1253 100.664 70.8199C101.86 69.7266 102.471 68.4906 102.626 66.8666C102.799 65.0493 101.378 63.06 99.7738 62.3493Z" fill="#F1AC56"/>
<path d="M126.282 61.9011C124.582 60.1438 122.198 59.3237 119.821 59.0744C116.821 58.7637 114.359 59.6171 112.579 62.1411C112.366 62.4424 112.189 62.7518 112.029 63.0651C110.713 62.4678 109.142 62.3797 107.713 62.6277C107.399 62.6824 107.103 62.7824 106.822 62.9117C104.866 63.5997 103.541 65.7571 103.778 67.8131C104.038 70.0691 105.411 71.9664 107.723 72.4797C109.709 72.9197 111.613 72.4117 113.165 71.1277L113.197 71.0944C114.201 72.2011 115.555 73.0344 117.162 73.3904C117.57 73.4824 117.974 73.5278 118.379 73.5518C119.265 73.7158 120.171 73.6717 121.011 73.4171C121.145 73.4277 121.274 73.4411 121.41 73.4477C127.085 73.6877 130.079 65.8264 126.282 61.9011Z" fill="#F1AC56"/>
<path d="M147.843 58.0735C147.815 57.8641 147.777 57.6561 147.71 57.4507C147.353 56.3681 146.287 55.2801 145.034 55.4147C143.671 55.5601 142.489 56.0588 141.754 57.3028C141.355 57.9801 141.263 58.7095 141.362 59.4015C139.135 59.5335 137.291 61.2308 137.221 63.5134C137.162 63.7041 137.111 63.8934 137.075 64.0814C136.742 65.7694 137.53 67.8521 139.426 68.2214C140.649 68.4614 141.731 68.5627 142.958 68.3281C145.217 67.8987 146.579 65.8321 146.666 63.6427C146.69 63.0574 146.547 62.4974 146.305 61.9828C147.325 61.3761 148.001 60.2268 147.935 59.0601L147.946 58.9801C147.935 58.6001 147.814 57.7588 147.843 58.0735Z" fill="#F1AC56"/>
<path d="M189.321 51.992C188.45 51.992 187.645 52.292 186.983 52.78L186.883 52.5253C186.754 52.2506 186.447 51.3933 186.837 52.568C186.647 51.9973 186.367 51.352 186.023 50.8373C184.415 48.4333 181.91 47.4373 179.079 47.8653C180.726 47.6173 178.843 47.828 178.293 48.0133C177.455 48.292 176.699 48.6853 176.069 49.316C174.862 50.5213 174.322 52.4 174.77 54.0546L174.711 54.4026C174.069 54.368 173.377 54.4373 172.897 54.6119C171.741 55.0333 171.013 55.6466 170.285 56.5186C169.87 56.3853 169.441 56.2933 168.987 56.2933C166.881 56.2933 165.093 57.8573 164.719 59.868C164.302 59.4853 163.834 59.1559 163.391 58.9173C161.989 58.1626 160.438 57.9279 158.889 58.3226C157.199 58.7519 155.789 60.48 155.857 62.2573L155.802 62.324C155.215 63.152 155.254 64.3133 155.459 65.2453C155.686 66.2839 156.573 67.1986 157.449 67.7506C158.465 68.3919 159.802 68.6386 160.986 68.5186C162.354 68.3826 163.997 68.0359 164.957 66.9426C165.547 66.2693 166.026 65.5973 166.239 64.708C166.294 64.4773 166.311 64.2613 166.331 64.044C167.073 64.6266 167.989 64.992 168.987 64.992C169.667 64.992 170.305 64.8147 170.883 64.5267C171.114 64.6933 171.358 64.8359 171.617 64.9559C172.03 65.6426 172.818 66.36 173.635 66.492C174.809 66.6853 175.771 66.8959 176.973 66.6559C178.742 66.3026 179.858 64.5893 180.438 63.0213C180.659 62.424 180.731 61.8279 180.695 61.2533C181.53 61.2506 182.355 61.1466 183.051 60.9906C184.337 60.7026 185.583 59.8106 186.43 58.6813C187.162 59.4613 188.189 59.96 189.321 59.96C191.493 59.96 193.305 58.1479 193.305 55.9759C193.305 53.8039 191.493 51.992 189.321 51.992Z" fill="#F1AC56"/>
</g>
<defs>
<clipPath id="clip0_7171_287">
<rect width="221.81" height="91.3497" fill="white" transform="translate(0.310059 0.5)"/>
</clipPath>
</defs>
</svg>
